<svg xmlns="http://www.w3.org/2000/svg" xmlns:xlink="http://www.w3.org/1999/xlink" width="1920" height="1076" viewBox="0 0 1920 1076" preserveAspectRatio="none"><defs><linearGradient id="a" x1="0.167" y1="-0.381" x2="0.843" y2="0.834" gradientUnits="objectBoundingBox"><stop offset="0"/><stop offset="1" stop-opacity="0"/></linearGradient><linearGradient id="b" x1="0.931" y1="0.342" x2="0.14" y2="1.04" gradientUnits="objectBoundingBox"><stop offset="0" stop-color="#dfa69d"/><stop offset="0.15" stop-color="#e3b2a5"/><stop offset="0.49" stop-color="#edccb7"/><stop offset="0.98" stop-color="#f3cda6"/></linearGradient><linearGradient id="c" x1="1" y1="0.5" x2="0" y2="0.5" gradientUnits="objectBoundingBox"><stop offset="0.15" stop-color="#fff"/><stop offset="0.71" stop-color="#f6dbbf"/><stop offset="0.98" stop-color="#f3cda6"/></linearGradient><linearGradient id="d" x1="0.985" y1="0.303" x2="0.194" y2="1.421" xlink:href="#b"/><linearGradient id="e" x1="0.5" y1="1" x2="0.5" gradientUnits="objectBoundingBox"><stop offset="0" stop-color="#84347e"/><stop offset="0.45" stop-color="#9c4c7d"/><stop offset="0.98" stop-color="#b5667d"/></linearGradient><linearGradient id="f" x1="0.5" y1="1" x2="0.5" gradientUnits="objectBoundingBox"><stop offset="0.45" stop-color="#a5786a"/><stop offset="0.76" stop-color="#d1a693"/></linearGradient><linearGradient id="g" x1="0.5" y1="1.316" x2="0.5" y2="-0.398" xlink:href="#e"/><linearGradient id="h" x1="0.77" y1="0.813" x2="0.319" y2="0.309" gradientUnits="objectBoundingBox"><stop offset="0.48" stop-color="#dc5945"/><stop offset="0.82" stop-color="#ee9574"/><stop offset="0.98" stop-color="#f6af88"/></linearGradient><linearGradient id="i" x1="0.83" y1="1.315" x2="0.152" y2="-0.463" gradientUnits="objectBoundingBox"><stop offset="0.12" stop-color="#b8312c"/><stop offset="0.34" stop-color="#c95446"/><stop offset="0.78" stop-color="#e99575"/><stop offset="0.98" stop-color="#f6af88"/></linearGradient><linearGradient id="j" x1="1.406" y1="6.034" x2="0.165" y2="-1.236" xlink:href="#h"/><linearGradient id="k" x1="0.922" y1="0.699" x2="0.152" y2="0.276" gradientUnits="objectBoundingBox"><stop offset="0" stop-color="#b968a8"/><stop offset="0.37" stop-color="#bf88a8"/><stop offset="0.76" stop-color="#c6a7a8"/><stop offset="1" stop-color="#c6b1d4"/></linearGradient><linearGradient id="l" x1="1" y1="0.5" x2="0" y2="0.5" xlink:href="#c"/><linearGradient id="m" x1="0.926" y1="0.752" x2="0.164" y2="0.264" xlink:href="#k"/><linearGradient id="n" x1="12.766" y1="4.303" x2="-0.682" y2="0.136" xlink:href="#k"/><linearGradient id="o" x1="0.915" y1="1.871" x2="0.091" y2="-0.839" xlink:href="#k"/><linearGradient id="p" x1="1.021" y1="0.966" x2="0" y2="0" xlink:href="#k"/><linearGradient id="q" x1="1.044" y1="0.889" x2="-0.043" y2="0.083" xlink:href="#k"/><linearGradient id="r" x1="0.951" y1="1.25" x2="0.049" y2="-0.234" xlink:href="#k"/><linearGradient id="s" x1="0.994" y1="1.048" x2="0.013" y2="-0.036" xlink:href="#k"/><linearGradient id="t" x1="0.833" y1="1.679" x2="0.161" y2="-0.679" xlink:href="#k"/><linearGradient id="u" x1="1.07" y1="0.864" x2="-0.07" y2="0.146" xlink:href="#k"/><linearGradient id="v" x1="1.029" y1="0.931" x2="-0.019" y2="0.056" xlink:href="#k"/><linearGradient id="w" x1="0.736" y1="0.708" x2="0.264" y2="0.283" xlink:href="#k"/><linearGradient id="x" x1="0.681" y1="0.618" x2="0.319" y2="0.382" xlink:href="#k"/><linearGradient id="y" x1="0.68" y1="0.615" x2="0.316" y2="0.381" xlink:href="#k"/><linearGradient id="z" x1="0.713" y1="0.664" x2="0.287" y2="0.336" xlink:href="#k"/><linearGradient id="aa" x1="0.785" y1="0.877" x2="0.22" y2="0.123" xlink:href="#k"/><linearGradient id="ab" x1="0.696" y1="0.638" x2="0.304" y2="0.362" xlink:href="#k"/><linearGradient id="ac" x1="-17.025" y1="67.341" x2="-17.025" y2="66.529" gradientUnits="objectBoundingBox"><stop offset="0" stop-color="#43a0ab"/><stop offset="0.36" stop-color="#3292a1"/><stop offset="0.99" stop-color="#197d94"/></linearGradient><linearGradient id="ad" x1="0.5" y1="1" x2="0.5" y2="-0.041" xlink:href="#f"/><linearGradient id="ae" x1="0.5" x2="0.5" y2="1" gradientUnits="objectBoundingBox"><stop offset="0" stop-opacity="0.612"/><stop offset="0.83" stop-opacity="0"/><stop offset="1" stop-opacity="0"/></linearGradient><clipPath id="ag"><rect width="1920" height="1076"/></clipPath></defs><g id="af" clip-path="url(#ag)"><rect width="1920" height="1076" fill="rgba(255,255,255,0)"/><g transform="translate(-19 0.005)"><g transform="translate(1301.29 593.712)"><path d="M351.293.023,528.967,7.751a13.575,13.575,0,0,1,11.09,6.661c21.295,36.049,96.807,154.2,84.831,285.981H58.393S45.219,159.026,250.019,141.055c0,0,56.913-104.528,84.267-134.011A21.9,21.9,0,0,1,351.293.023Z" transform="translate(-58.222 -0.003)" fill="url(#b)"/><path d="M310.617,170.176c-8.925,5.14-31.628,14.664-37.223,91.086l82.328-12.675s8.782-38.529-5.247-69.162c-10-21.828-39.846-9.249-39.846-9.249Z" transform="translate(-48.172 32.982)" opacity="0.34" fill="url(#c)"/><g transform="translate(0.016 112.611)" opacity="0.05"><path d="M624.864,281.767H58.37s-.12-1.354-.156-3.81c19.234-.168,63.8-.252,166.966.276C376.158,279,539.315,155.315,591.318,94c21.69,51.982,39.894,117.958,33.559,187.767Z" transform="translate(-58.214 -94)" fill="url(#d)"/><path d="M624.864,281.767H58.37s-.12-1.354-.156-3.81c19.234-.168,63.8-.252,166.966.276C376.158,279,591.438,216.031,591.318,94c21.69,51.982,39.894,117.958,33.559,187.767Z" transform="translate(-58.214 -94)"/></g><path d="M484.654,195.779l-100.742,9.273a55.674,55.674,0,0,0-16.545,4.145l-5.044,2.121a47.384,47.384,0,0,1-20.834,3.642l-9.2-.479a10.357,10.357,0,0,1-5.391-1.869L304.076,196.45a10.274,10.274,0,0,0-11.046-.527l-32.107,18.4L206.2,244.671a10.915,10.915,0,0,1-2,.851l-58.1,17.575a10.281,10.281,0,0,1-13.25-9.56l-1.1-40.505a10.275,10.275,0,0,0-11.753-9.884h0c-14.628,2.132-21.948-17.24-9.476-25.171,27.219-17.312,65.245-31.053,118.317-36.372a10.257,10.257,0,0,0,7.943-5.247c10.83-19.612,52.857-94.68,77.584-124.559A32.018,32.018,0,0,1,340.412.285L507.656,7.557a23.818,23.818,0,0,1,19.42,11.573c6.517,10.89,16.233,27.016,26.752,47.214.132.24.252.491.383.731a10.252,10.252,0,0,1,.863,7.116L536.014,153.7a54.89,54.89,0,0,1-51.348,42.063Z" transform="translate(-42.267 0.047)" fill="url(#e)"/><path d="M393.774,186.206l-.934-15.61,57.781-8.925,26.968,46.891-8.386,4.648-71.019,35.9c4.517-19.648,1.545-42.482-4.4-62.908Z" transform="translate(-310.352 32.011)" fill="url(#f)"/><g transform="translate(93.722 154.47)" opacity="0.2"><path d="M350.466,203.194c.252-9.728,4.732-15.023,13.813-20.51s11.393-6.841,32.526-25.734c17.9-15.994,63.879-12.663,77.944-25.829l-1.51-2.18-7.26,18.486-35.414,58.691L393.427,227.37l-32.9,9.956c-4.025,1.222-7.524,18.138-10.063,15.3.779-12.1-.144-44.135,0-49.419Z" transform="translate(-350.45 -128.94)"/></g><g transform="translate(264.123 61.479)" opacity="0.18"><path d="M216.7,179.066c32.682.431,43.225-11.777,87.169-43.105,34.6-24.667,40.326-56.643,45.01-84.641.863,1.617,1.713,3.247,2.588,4.912.132.24.252.491.383.731a10.252,10.252,0,0,1,.863,7.116l-19.061,79.513a54.889,54.889,0,0,1-51.347,42.063l-100.742,9.273a55.674,55.674,0,0,0-16.545,4.145l-5.044,2.121a47.384,47.384,0,0,1-20.834,3.642l-9.2-.479a10.357,10.357,0,0,1-5.391-1.869l-20.378-14.436,3.57-1.426s76.278-7.991,108.961-7.56Z" transform="translate(-104.172 -51.32)" fill="url(#g)"/><path d="M197.61,178.334c32-6.7,75.368,4.469,93.518-26.788C310.992,117.366,327.68,83.5,332.377,55.5c.863,1.617-.875-1.665,0,0,.563,1.078,1.126,2.192,1.713,3.283a2.435,2.435,0,0,1,.216,1.737l-19.732,82.34a54.889,54.889,0,0,1-51.348,42.063L161.286,194.3a48.392,48.392,0,0,0-14.245,3.558l-7.8,3.283a39.589,39.589,0,0,1-17.407,3.043l-10.974-.575a10.356,10.356,0,0,1-5.391-1.869l1.8-23.3,22.152-13.705s-7.619,29.46,68.2,13.586Z" transform="translate(-87.104 -50.588)"/></g><path d="M363.091,41.7,143.6,162.566s3.115-18.714-13.489-24.812c10-18.15,58-104.3,82.436-130.621A21.9,21.9,0,0,1,229.558.113L407.286,7.841A13.58,13.58,0,0,1,418.38,14.5L382.606,149.088,363.091,41.709Z" transform="translate(63.519 0.015)" fill="#bf7889"/><g transform="translate(291.039 149.091)" opacity="0.11"><path d="M187.936,139.186c8.29-1.078-.3-3.87,35.725-7.1,46.148-4.145,91.386-7.631,91.386-7.631-5.954,2.216-5.223,6.385-16.677,10.435-1.857.659-4.049,1.318-6.637,1.953a6.452,6.452,0,0,0-1.509-1.821l-2.708-2.264a4.272,4.272,0,0,0-3.486-.934l-21.205,3.666,16.7,3.786c-19.4,3.091-85.695.383-114.9,9.261-13.334,4.049,4.349-6.877,23.3-9.333Z" transform="translate(-159.97 -124.45)" fill="#fff"/></g><path d="M512.354,33.479c-3.714,34.407-11.13,113.238-11.13,113.238L341.659,167.31,297.14,215.7a43.4,43.4,0,0,0-10.147,18.833l-11.417,45.753a4.377,4.377,0,0,1-4.4,3.307L154.8,279.11a4.367,4.367,0,0,1-4.169-4.84l4.037-36.7a33.542,33.542,0,0,1,12.292-22.451l33.832-27.279a34.857,34.857,0,0,1,9.764-5.535l50.042-18.4,14.149-33.113A526.71,526.71,0,0,1,311.1,60.782l23.517-39.439c3.271-6.218,10.411-9.56,17.431-9.321l146.2,5.152a14.7,14.7,0,0,1,14.1,16.281Z" transform="translate(-52.811 2.374)" fill="url(#h)"/><g transform="translate(97.796 228.987)"><path d="M474.823,205.3l-9.285,37.2a4.377,4.377,0,0,1-4.4,3.307l-116.376-4.481a4.367,4.367,0,0,1-4.169-4.84l3.7-33.617c39.978,4.72,87.528,6.685,130.513,2.432Z" transform="translate(-340.57 -188.829)" fill="url(#i)"/><path d="M343.386,191.15,471.2,204.424l-.791,3.187c-42.985,4.253-90.535,2.288-130.513-2.432l.335-3.067A33.2,33.2,0,0,1,343.4,191.15Z" transform="translate(-336.148 -191.15)" fill="url(#j)"/></g><path d="M409.477,35.229,398.8,144.68,239.237,165.275l-88.582-.611,7.536-2.767,79.956,1.462S382.293,154.516,407.883,22.23c0,0,3.259,4.265,1.593,13Z" transform="translate(49.736 4.398)" fill="#b8312c"/><path d="M322.546,180.971c6.673-15.131,2.516-31.628-9.3-36.827s-20.295,7.967-33.461,17.982c-15.562,11.837-9.812,27.878,9.3,36.827C300.766,204.429,315.873,196.115,322.546,180.971Z" transform="translate(-12.402 28.308)" opacity="0.18"/><path d="M324.116,178.191c6.673-15.131,2.516-31.628-9.3-36.827s-20.295,7.967-33.461,17.982c-15.562,11.837-9.812,27.878,9.3,36.827C302.336,201.649,317.443,193.335,324.116,178.191Z" transform="translate(-15.852 27.758)" fill="url(#k)"/><path d="M184.891,141.593l-4.66-4.5a1.475,1.475,0,0,1,.863-2.528l19.432-2.923c.491-.06.084-.934.407-.551l6.182,6.278a1.479,1.479,0,0,1-.97,2.408L186.089,142a1.455,1.455,0,0,1-1.186-.407Z" transform="translate(214.926 25.936)" fill="#844071"/><path d="M497.315,178.074c-8.925,5.14-32.083,8.47-37.678,84.892l76.41-.036s13.13-55.948-4.445-84.1c-12.723-20.366-34.276-.755-34.276-.755Z" transform="translate(-453.547 33.577)" opacity="0.34" fill="url(#l)"/><path d="M508.809,186.052c6.493-15.215,3.163-39.906-11.944-38.624-11.729.994-26.776,7.56-39.643,22.032-16.461,18.5,2.12,33.7,13.957,33.1,15.526-.779,31.149-1.294,37.642-16.509Z" transform="translate(-414.066 29.181)" opacity="0.18"/><path d="M510.379,183.272c6.493-15.215,3.163-39.906-11.944-38.624-11.729.994-26.776,7.56-39.643,22.032-16.461,18.5,2.121,33.7,13.957,33.1,15.526-.779,31.149-1.294,37.642-16.509Z" transform="translate(-417.517 28.631)" fill="url(#m)"/><g transform="translate(34.776 184.588)" opacity="0.14"><path d="M326.5,154.08a34.7,34.7,0,0,1-2.444,21.361c-6.673,15.131-21.78,23.457-33.461,17.982-10.89-5.1-17.431-12.507-18.174-20.127A33.7,33.7,0,0,0,326.5,154.08Z" transform="translate(-50.508 -154.08)"/><path d="M513.074,158.05a43.614,43.614,0,0,1-2.7,22.559c-6.493,15.215-22.116,15.73-37.642,16.509-9.5.479-23.338-9.237-19.911-22.655a37.474,37.474,0,0,0,60.249-16.413Z" transform="translate(-452.292 -153.294)"/></g><path d="M315.62,174.03a20.4,20.4,0,0,0,1.845,3.438" transform="translate(-57.787 34.459)" fill="url(#n)"/><g transform="translate(271.375 167.984)"><path d="M286.749,140.591a12.183,12.183,0,0,0-2.109-.371A11.987,11.987,0,0,1,286.749,140.591Z" transform="translate(-261.338 -140.22)" fill="url(#o)"/><path d="M281.323,142.357c-.192-.12-.371-.24-.563-.347C280.952,142.118,281.131,142.25,281.323,142.357Z" transform="translate(-251.265 -139.866)" fill="url(#p)"/><path d="M279.811,143.451c-.18-.144-.371-.288-.551-.431C279.452,143.164,279.631,143.3,279.811,143.451Z" transform="translate(-247.955 -139.666)" fill="url(#q)"/><path d="M282.82,140.53a15.317,15.317,0,0,1,2.18.767h0A15.317,15.317,0,0,0,282.82,140.53Z" transform="translate(-257.41 -140.159)" fill="url(#r)"/><path d="M283.135,142.164a17.937,17.937,0,0,0-1.9-.994A17.937,17.937,0,0,1,283.135,142.164Z" transform="translate(-253.639 -140.032)" fill="url(#s)"/><path d="M290.123,140.23a12.607,12.607,0,0,0-2.013.335A13.072,13.072,0,0,1,290.123,140.23Z" transform="translate(-268.87 -140.218)" fill="url(#t)"/><path d="M279.486,144.6c-.431-.431-.887-.839-1.366-1.234C278.587,143.753,279.042,144.161,279.486,144.6Z" transform="translate(-246.264 -139.596)" fill="url(#u)"/><path d="M280.966,143.163c-.407-.3-.815-.6-1.246-.863C280.151,142.576,280.559,142.863,280.966,143.163Z" transform="translate(-249.661 -139.808)" fill="url(#v)"/><path d="M295.863,142.27c-.647.383-1.306.815-1.953,1.27C294.569,143.085,295.216,142.665,295.863,142.27Z" transform="translate(-281.558 -139.814)" fill="url(#w)"/><path d="M303.813,146.61c-1.342,1.174-2.72,2.42-4.133,3.7C301.094,149.03,302.471,147.784,303.813,146.61Z" transform="translate(-296.421 -138.955)" fill="url(#x)"/><path d="M306.389,149.7c-1.066.958-2.144,1.941-3.259,2.923C304.244,151.641,305.334,150.658,306.389,149.7Z" transform="translate(-303.13 -138.343)" fill="url(#y)"/><path d="M297.5,143.32c-.659.455-1.306.946-1.965,1.462C296.2,144.266,296.858,143.775,297.5,143.32Z" transform="translate(-285.153 -139.606)" fill="url(#z)"/><path d="M293.577,140.75a18.538,18.538,0,0,0-2.947,1.27A19.532,19.532,0,0,1,293.577,140.75Z" transform="translate(-275.343 -140.115)" fill="url(#aa)"/><path d="M300.175,144.54c-.982.779-1.989,1.605-3,2.48C298.186,146.145,299.193,145.307,300.175,144.54Z" transform="translate(-289.788 -139.365)" fill="url(#ab)"/></g><g transform="translate(35.453 167.948)" opacity="0.27"><path d="M283.819,159.346c13.166-10.016,21.66-23.182,33.461-17.982a19.668,19.668,0,0,1,9.524,9.273c-4.169-3.63-11.3-8.374-15.874-6.637-5.7,2.168-18.869,11.477-20.8,13.969s-13.25,9.764-15.191,17.024a1.308,1.308,0,0,0-.06.2c-.216-5.475,2.576-11.022,8.937-15.862Z" transform="translate(-53.69 -140.19)" fill="#fff"/><path d="M499.655,144.648c6.23-.527,10.459,3.366,12.819,9.189-8.015-4.517-17.323-7.919-25.9-1.665C476.246,159.7,460.947,167.59,454.19,176.6a25.876,25.876,0,0,1,5.822-9.92C472.891,152.207,487.938,145.642,499.655,144.648Z" transform="translate(-454.19 -139.317)" fill="#fff"/></g><g transform="translate(193.638 0.096)" opacity="0.25"><path d="M262.83.1,411.793,6.585C361.656,8.43,296.6,7.471,268.449,6.9a26.2,26.2,0,0,0-22.056,11.261L163.37,137.745c10-18.162,58.032-104.36,82.46-130.645a21.891,21.891,0,0,1,16.988-7Z" transform="translate(-163.37 -0.083)" fill="#fff"/></g><path d="M185.731,140.438l-4.66-4.5a1.475,1.475,0,0,1,.863-2.528l20.906-2.324a1.45,1.45,0,0,1,1.294.527l3.81,4.6a1.479,1.479,0,0,1-.97,2.408l-20.055,2.228a1.455,1.455,0,0,1-1.186-.407Z" transform="translate(213.092 25.952)" fill="url(#ac)"/><g transform="translate(75.06 136.392)" opacity="0.1"><path d="M432.781,131.928c-22.02,2.9-47.442,16.161-62.022,19.576l-.659-.168c26.656-15.347,62.7-27.363,111.489-32.239a10.218,10.218,0,0,0,7.931-5.247,37.771,37.771,0,0,1-4.984,9.045C481.133,127.436,454.8,129.029,432.781,131.928Z" transform="translate(-370.1 -113.85)" fill="url(#ad)"/><path d="M432.781,131.928c-22.02,2.9-47.442,16.161-62.022,19.576l-.659-.168c26.656-15.347,62.7-27.363,111.489-32.239a10.218,10.218,0,0,0,7.931-5.247,37.771,37.771,0,0,1-4.984,9.045C481.133,127.436,454.8,129.029,432.781,131.928Z" transform="translate(-370.1 -113.85)" fill="#fff"/></g><path d="M86.438,300.469a58.63,58.63,0,0,0,11.354,5.271,198.5,198.5,0,0,0,43.764,10.83c36.482,8.458,81.36,15.023,136.083,17.407,0,0,113.351,54.4,156.624,69.737a61.056,61.056,0,0,0,20.8,3.654l173.511-4.025c4.479-.108,7.294-1.4,7.5-3.462,1.832-18.761,13.558-80.256-69.575-148.831H-.012s22.553,26.273,86.474,49.407Z" transform="translate(0.039 49.328)" fill="url(#ae)"/></g></g></g></svg>