<svg xmlns="http://www.w3.org/2000/svg" xmlns:xlink="http://www.w3.org/1999/xlink" width="1963.757" height="831.585" viewBox="0 0 1963.757 831.585" preserveAspectRatio="none">
  <defs>
    <clipPath id="clip-path">
      <rect id="Rectangle_9" data-name="Rectangle 9" width="1963.757" height="831.585" fill="none"/>
    </clipPath>
  </defs>
  <g id="Deco_sol" data-name="Deco sol" transform="translate(5)">
    <g id="Groupe_22" data-name="Groupe 22" transform="translate(-5)" clip-path="url(#clip-path)">
      <path id="Tracé_55" data-name="Tracé 55" d="M1091.037,74.641c24.275-10.388,59.16-19.741,103.686-27.8C1286.779,30.177,1409.238,21,1539.542,21s252.762,9.177,344.818,25.84c31.366,5.678,57.939,12,79.4,18.868V55.216c-21.347-6.634-47.3-12.732-77.576-18.213-92.64-16.768-215.745-26-346.639-26s-254,9.235-346.64,26q-18.725,3.39-35.224,7.089L1075.415,0h-16.977l87.408,46.851c-23.578,5.73-43.268,11.955-58.826,18.612-24.542,10.5-38.284,22.086-40.971,34.49H13.434v9.095H1046.049c2.688,12.4,16.43,23.987,40.971,34.489C1112,154.226,1147.622,163.8,1192.9,172c24.915,4.51,52.05,8.469,80.929,11.856L0,823.56l4.121,8.025L1290.255,185.7c74.724,8.019,160.195,12.3,249.286,12.3,130.894,0,254-9.234,346.639-26,30.277-5.48,56.229-11.578,77.576-18.212V143.292c-21.458,6.871-48.032,13.191-79.4,18.869C1792.3,178.824,1669.844,188,1539.542,188c-89.128,0-174.578-4.295-249.146-12.341l-.051-.1-.154.077c-34.373-3.713-66.436-8.221-95.468-13.476-44.526-8.06-79.411-17.414-103.686-27.8-22.812-9.762-35.374-20.366-35.374-29.86s12.563-20.1,35.374-29.859" fill="#9093ce"/>
    </g>
  </g>
</svg>
