<svg xmlns="http://www.w3.org/2000/svg" xmlns:xlink="http://www.w3.org/1999/xlink" width="439.591" height="984.097" viewBox="0 0 439.591 984.097">
  <defs>
    <linearGradient id="linear-gradient" x1="0.167" y1="-0.381" x2="0.843" y2="0.834" gradientUnits="objectBoundingBox">
      <stop offset="0"/>
      <stop offset="1" stop-opacity="0"/>
    </linearGradient>
    <clipPath id="clip-path">
      <rect id="Rectangle_11" data-name="Rectangle 11" width="388.242" height="361.491" fill="url(#linear-gradient)"/>
    </clipPath>
    <linearGradient id="linear-gradient-3" x1="0.5" y1="1" x2="0.5" gradientUnits="objectBoundingBox">
      <stop offset="0" stop-color="#672c2c"/>
      <stop offset="1" stop-color="#421a1a"/>
    </linearGradient>
    <linearGradient id="linear-gradient-4" x1="0.5" y1="1" x2="0.5" gradientUnits="objectBoundingBox">
      <stop offset="0" stop-color="#c6704e"/>
      <stop offset="0.13" stop-color="#d17853"/>
      <stop offset="0.42" stop-color="#e5865d"/>
      <stop offset="0.71" stop-color="#f18f63"/>
      <stop offset="1" stop-color="#f59265"/>
    </linearGradient>
    <linearGradient id="linear-gradient-5" x1="0.5" y1="1" x2="0.5" gradientUnits="objectBoundingBox">
      <stop offset="0" stop-color="#14345b"/>
      <stop offset="1" stop-color="#245193"/>
    </linearGradient>
  </defs>
  <g id="Kinder" transform="translate(-243.955)">
    <g id="Ombre" transform="translate(295.304 622.606)">
      <g id="Groupe_49" data-name="Groupe 49" clip-path="url(#clip-path)">
        <path id="Tracé_126" data-name="Tracé 126" d="M361.874,223.8c-.914-.654-5.243-2.93-13.495-7.775-1.433-.842-8.478-3.891-16.961-8.883-3.968-2.335-8.883-5.289-13.312-7.415-5.216-2.5-6.094-5.459-13.325-5.946a2.637,2.637,0,0,0-1.122.326c-.927-.362-1.831-.77-2.757-1.13a13.932,13.932,0,0,0-3.64-.911c-3.629-1.763-6.955-3.548-10.3-5.475l-.01-.02c-.082-.168-.164-.321-.246-.474-.042-.078-.084-.165-.126-.24-.08-.143-.158-.269-.236-.4.526-.206.047-.732-.574-.9-14.007-21.64-33.957-54.814-52.221-85.726q-1.007-1.7-2.006-3.4c-3-5.082-5.942-10.087-8.8-14.954l-.949-1.617-1.876-3.2L218.076,72.5q-1.831-3.13-3.6-6.151t-3.451-5.913l-1.665-2.857c-2.191-3.762-4.267-7.334-6.2-10.67l-1.426-2.457c-2.8-4.823-5.269-9.092-7.33-12.66q-.515-.892-1-1.725c-3.685-6.381-5.815-10.092-5.815-10.092,1.21-.368,1.865-1.078,1.755-1.963a2.277,2.277,0,0,0-.4-.981,3.787,3.787,0,0,0-.251-.329,5.165,5.165,0,0,0-.646-.63,7.586,7.586,0,0,0-.813-.581,12.031,12.031,0,0,0-3.543-1.428,12.5,12.5,0,0,0-1.993-.309l-.971-1.218a8.621,8.621,0,0,0,1.532.234,3.088,3.088,0,0,0,.735-.049c.969-.2,1.006-.9.923-1.539a18.814,18.814,0,0,0-1.1-4.254,24.528,24.528,0,0,0-1.369-2.938c-.257-.473-.526-.948-.821-1.422-.057-.092-.117-.186-.182-.281a5.212,5.212,0,0,0-.652-.789,4.438,4.438,0,0,0-.366-.325,4.334,4.334,0,0,0-.548-.356A4.652,4.652,0,0,0,178.206.5,6.49,6.49,0,0,0,176.623.16,15.6,15.6,0,0,0,174.787.1l-.363,0h-2.512l-1.721,0h-.04l-.89,0h-.211L167.1.082h-.01L164.808.071H164.8L159.948.047h-.013c-6.57-.033-13.085-.064-14.516-.032-4.679.1-8.937.2-13.194.289l-9.758.213L119.03.591l-1.186.371a1.446,1.446,0,0,0-.385.28c-.01.01-.024.02-.033.03a.958.958,0,0,0-.2.327c-.006.017-.013.033-.019.051a1.029,1.029,0,0,0-.036.368c0,.018,0,.036.005.054a1.556,1.556,0,0,0,.111.411c0,.011.011.023.016.035a4.811,4.811,0,0,0,1.8,1.861h0c.17.111.345.22.53.323a29.737,29.737,0,0,0,7.486,2.472,274.292,274.292,0,0,0,32.171,5.44c.752.081,1.506.167,2.255.241.327.032.659.063.988.088a8.184,8.184,0,0,0,2.659-.117l.078-.021.059-.016.292.64-.653-.013c-3.225-.063-4.859,1.388-3.623,3.215.973,1.438,3.435,2.674,6,3.123h0L222.9,169l-6-5.848-1.99-1.94-1.081-1.053-2.32-2.26-5.2-5.063-2.834-2.76-6.029-5.873-6.367-6.2-9.808-9.549-8.036-7.822-4.611-4.487-2.94-2.86c-5.756-5.6-10.722-10.425-14.119-13.719-1.415-1.372-2.558-2.478-3.372-3.263l-.117-.114-.39-.378-.246-.241-.339-.332-.3-.295-.352-.348-.357-.353-.358-.356-.411-.41-.368-.366-.456-.456-.391-.391-.483-.485-.424-.426-.514-.516-.447-.449-.542-.545-.508-.512-.514-.518-.561-.568-.572-.578-.487-.493-.657-.665c-.2-.2-.4-.41-.609-.616l-.547-.555-.748-.759-.505-.513-.882-.9-.385-.391L133.4,81.444l-.454-.462-.9-.914-.676-.688-.7-.717-.624-.635-.854-.871-.566-.576-.849-.866-.725-.74-.736-.751-.788-.8-.7-.718-.8-.82-.728-.744-.811-.828-.7-.717-.863-.882-.707-.723-.831-.85-.811-.83-.731-.748-.925-.947-.66-.675-1.221-1.251-.317-.324L113.7,61.323l-.725-.743-3.114-3.191-.542-.555-2.772-2.843-.385-.4-1.2-1.236-.427-.438-1.224-1.256L103,50.35l-1.2-1.232-.771-.791-.6-.618-.933-.958-.713-.732-.675-.693-1.246-1.28-.063-.065-1.136-1.167-.729-.748-.688-.707-.582-.6L92.49,39.555l-.273-.281-2.709-2.785-.132-.135c-5.552-5.708-10.207-10.5-13.2-13.578l-.135-.139-.207-.213-.6-.613-2.018-2.079a1.776,1.776,0,0,0,.416-.489,1.685,1.685,0,0,0-.181-1.786,3.605,3.605,0,0,0-.242-.334,6.1,6.1,0,0,0-1.465-1.251,9.892,9.892,0,0,0-.96-.534,12.884,12.884,0,0,0-5.053-1.26l-1.586-1.418a4.634,4.634,0,0,0,1.67.063,1.027,1.027,0,0,0,.923-.825,1.837,1.837,0,0,0,.024-.473c-.005-.08-.014-.161-.024-.24a18.148,18.148,0,0,0-.725-3.177A23.75,23.75,0,0,0,64.1,3.668q-.308-.548-.648-1.1a5.133,5.133,0,0,0-1.2-1.395,4.384,4.384,0,0,0-.548-.356A4.66,4.66,0,0,0,61.033.5,6.655,6.655,0,0,0,59.313.14,16.461,16.461,0,0,0,57.615.1l-.363,0H54.74L53.018.1h-.04l-.89,0h-.209C43.809.058,30.38-.034,28.247.014L21.492.163,19.865.2,16.65.268,8.613.443,3.594.554,1.858.591.671.962a1.459,1.459,0,0,0-.385.279c-.01.011-.024.02-.034.032a.971.971,0,0,0-.2.326c-.006.017-.013.033-.018.051A1,1,0,0,0,0,2.018c0,.018,0,.036.005.054a1.531,1.531,0,0,0,.111.411l.016.034A5.361,5.361,0,0,0,2.462,4.7,29.728,29.728,0,0,0,9.947,7.175a274.293,274.293,0,0,0,32.171,5.44c.752.081,1.506.167,2.255.241.327.032.659.063.988.088a11.917,11.917,0,0,0,1.828.021l1.327,1.813c-2.283.4-3.117,1.784-1.834,3.362A10.135,10.135,0,0,0,52.438,21c7.077,9.415,89.765,119.5,120.934,164.761.247.358.52.716.806,1.073-.089.19.121.477.548.662q.682.786,1.486,1.562l9.224,8.883c-2.211.884-1.615,2.867-1.155,4.848-.072.052-.142.106-.21.163a2.523,2.523,0,0,0-.535,3.16c.043.1.1.223.157.35l.057.119q.07.144.152.3l.076.148c.063.121.131.248.2.381.021.039.04.076.063.116.1.177.2.362.312.559l.081.14c.09.157.184.319.282.488l.124.211q.143.243.3.5l.122.2c.142.238.29.481.445.736l.007.012c.158.259.325.529.5.8l.156.252q.188.3.385.616l.18.288c.145.23.294.466.445.706.044.068.086.135.129.2q.3.473.617.967l.108.169.544.846.185.287q.255.395.518.8l.185.285q.7,1.083,1.46,2.236l.179.273.6.908.221.336.614.93.188.284.817,1.232.105.158.738,1.109.216.324.669,1,.207.31q.882,1.318,1.79,2.672l.142.213.759,1.128.223.332.754,1.12.169.25q.469.7.943,1.4l.022.034.916,1.355.168.248q.4.6.811,1.2l.156.231,1.909,2.816.172.253.8,1.179.151.223c6.62,9.746,12.941,18.977,16.107,23.774a63.839,63.839,0,0,0-6.76-2.147c-1.582-.4-3.055-.679-4.586-.914-.71-.109-1.435-.207-2.187-.3-2.081-.263-4.381-.5-7.253-.845-3.243-.391-12.281-.883-20.19-.9-.832,0-1.652,0-2.452.009-1.2.013-2.351.04-3.43.083-1.439.056-2.747.14-3.859.257-.316.033-.611.07-.894.109q-.635.086-1.147.192l-.2.043c-.157.036-.31.072-.446.111a4.371,4.371,0,0,0-2.454,1.847,6.091,6.091,0,0,0-.325.541,12.107,12.107,0,0,0-1.169,4.382c-.064.624-.1,1.219-.115,1.747-.255,7.459-1.236,9.454.175,13.551.107.311.225.69.346,1.112a40.315,40.315,0,0,1,1.12,5.037c.034.251.057.478.067.673.068,1.227,2.911,6.88,5.68,12.372.894,1.85,1.8,3.671,2.752,5.5a34.566,34.566,0,0,1,2.488,5.721,2.333,2.333,0,0,1,0,.49,3.352,3.352,0,0,1-.074.438c-.27,1.149-1.112,2.228-.91,3.4.3,1.74,2.664,3,5.072,3.81l1.832,3.382a2.723,2.723,0,0,0,.843,1.033,5.628,5.628,0,0,0,2.742.833,7.517,7.517,0,0,1,.113,3.851c-.989,4.964,1.275,12.914,3.8,18.632.462,1.045,1.245,2.743,2.921,3.133,2.118.493.119-6.666.119-6.666,0-.113.335-.026.364.1a25.78,25.78,0,0,0,4.706,9.775,1.9,1.9,0,0,0,2.12.689c.618-.317.619-1.107.461-1.8-.711-3.108-2.014-7.92-1.612-7.887.414.126,2.2,3.915,4.6,9.371a5.927,5.927,0,0,0,2.014,2.724c.479.357,1.286.439,1.445.169a4.344,4.344,0,0,0,.1-2.932l-1.495-8.1c-.022-.117.3-.057.368.068l5.786,11.244c.614.734,1.866,1.206,2.193.59.535-1.871-.466-6.631-1.9-10.849-.032-.094.172-.09.3,0l7.344,5.259c.666.477,1.766,1.066,2.326.883.4-.131.12-.57-.175-.931l-8.47-10.377a48.974,48.974,0,0,0-5.951-6.421c-3.214-2.792-6.707-5.085-8.783-8.8,1.313.247,2.52.339,3.064-.1,1.064-.86-1.683-2.691-1.552-3.895.022-.194.114-.387-.074-.607a.965.965,0,0,0-.2-.167c.86.088,1.563-.107,1.747-.541,3.115-7.324-2.45-29.063-2.905-37.367,20.341.257,48.6,10.789,66.725,15.673,5.13,1.382,10.3,2.237,14.819,3.082q1.011.19,1.975.381h.006l-.023,0a2.177,2.177,0,0,0,.111.194,6.653,6.653,0,0,0,3.746,2.442,12.128,12.128,0,0,0,6.435-.137c2.365-.573,4.671-1.2,7.115-1.7,2.167,3.258,4.749,7.154,6.582,9.9-4.861,3.009-6.566,8.169-2.718,15.13-1.762.493-2.361,1.79-1.291,3.318a8.941,8.941,0,0,0,4.272,2.861c.442,3.228,2.883,8.662,2.883,8.662-.19,1.519,5.216,10.233,19.9,11.112s44.655,3.118,47.951,5.836c0,0-.012-.051-.038-.14a8.72,8.72,0,0,0-5.107-5.616l.066.01c.9.139,11.7,1.853,15.292,4.445l.015.011.016.011,0-.017c.045-.275.55-4.224-7-8.351-.065-.036-.125-.071-.191-.106,0,0,.46-1.6,6.111-.315.4.09.819.194,1.269.315,0,0-6.8-8.315-16.745-9.993-.527-.089-1.014-.163-1.477-.227h-.007l-5.749-5.729c.822-.647.952-1.643.163-2.769A9.54,9.54,0,0,0,359.3,329.9,53.471,53.471,0,0,0,339.784,315.8a55.8,55.8,0,0,0-5.822-2.1l-.306-.591-.226-.063c-1.4-2.47-2.95-5.19-4.284-7.561.4.085.794.167,1.191.258,1.271.289,2.57.607,3.81.774a12.506,12.506,0,0,0,1.354.117c1.623.039,3.03-.474,2.8-1.431a.654.654,0,0,0-.065-.163,35.111,35.111,0,0,0,5.573-.577c11.451-2.008,19.889-6.716,23.627-13.184,2-3.465,3.6-6.523,3.557-10.595-.044-4.2.478-5.416.165-13.223a118.364,118.364,0,0,1,.179-14.511c.769-10.865.035-6.98-3.86-21.515a16.141,16.141,0,0,0-5.607-7.635M291.832,201.61l-.006-.023-.1-.374a17.184,17.184,0,0,0,3.139.656c.692.079,1.415.153,2.135.245a2.6,2.6,0,0,0,.057.346l.006.029a2.632,2.632,0,0,0,.119.366c.009.022.016.043.025.064a2.667,2.667,0,0,0,.171.321c.016.026.029.054.047.08a2.977,2.977,0,0,0,.287.368l0,0,18.155,13.03,18.155,13.031c-.529,1.376-.976,2.556-1.369,3.588-.157.414-.305.8-.447,1.174-.212.554-.408,1.064-.6,1.539s-.365.916-.54,1.334c-.117.278-.231.546-.347.807a31.109,31.109,0,0,1-1.517,3c-.147.256-.3.519-.466.79-.574.951-1.264,2.015-2.145,3.332-6.086-9.98-14.5-24.079-25.229-35.447-2.714-2.877-3.768-5.12-7.993-7.51a15.06,15.06,0,0,0-1.545-.748" transform="translate(0 0)" fill="url(#linear-gradient)"/>
      </g>
    </g>
    <g id="Personnage" transform="translate(243.955 0)">
      <g id="Bas" transform="translate(0 4.451)">
        <g id="Pantalon_" data-name="Pantalon " transform="translate(51.844 243.472)">
          <g id="shoes" transform="translate(0 335.342)">
            <path id="Tracé_59" data-name="Tracé 59" d="M687.439,892.563q.435-7.772.862-15.537c.115-2.028.182-4.2-1.159-5.956-2.345-3.066-7.58-3.275-11.933-3.126-1.563.054-3.275.155-4.386,1.044-1.381,1.105-1.253,2.944-1.031,4.541q1.506,10.743,3.005,21.48" transform="translate(-514.215 -866.396)" fill="#f4966b"/>
            <path id="Tracé_60" data-name="Tracé 60" d="M497.91,889.6l.283-15.557c.034-2.035.135-4.211,1.772-5.855,2.87-2.891,8.752-2.722,13.61-2.264,1.745.168,3.659.391,4.824,1.354,1.462,1.2,1.166,3.025.788,4.6q-2.547,10.6-5.094,21.211" transform="translate(-458.188 -865.664)" fill="#f4966b"/>
            <path id="Tracé_61" data-name="Tracé 61" d="M442.092,921.031c9.487.364,17.262.647,26.749,1,2.9.108,25.947-.216,29.262-.142a4.549,4.549,0,0,0,3.126-.707c.97-.842,1.031-2.311.97-3.6a56.374,56.374,0,0,0-2.736-14.978c-.357-1.1-.889-2.331-1.994-2.675a3.993,3.993,0,0,0-3.005.782c-3.76,2.109-4.016,2.089-8.463,1.112-1.092-.243-5.35-1.637-6.381-2.069a6.552,6.552,0,0,0-3.659-.054,121.352,121.352,0,0,0-30.4,9.878c-2.19,1.044-4.447,2.25-5.747,4.3s-1.2,5.181.829,6.509" transform="translate(-438.956 -876.692)" fill="#3d3d3d"/>
            <path id="Tracé_62" data-name="Tracé 62" d="M615.712,921.031c9.487.364,17.262.647,26.749,1,2.9.108,25.947-.216,29.262-.142a4.566,4.566,0,0,0,3.126-.707c.97-.842,1.031-2.311.97-3.6a56.377,56.377,0,0,0-2.736-14.978c-.357-1.1-.889-2.331-1.994-2.675a3.993,3.993,0,0,0-3.005.782c-3.76,2.109-4.016,2.089-8.463,1.112-1.091-.243-5.35-1.637-6.381-2.069a6.552,6.552,0,0,0-3.659-.054,121.353,121.353,0,0,0-30.4,9.878c-2.19,1.044-4.447,2.25-5.747,4.3s-1.2,5.181.829,6.509" transform="translate(-495.595 -876.692)" fill="#3d3d3d"/>
          </g>
          <g id="jeans" transform="translate(35.238)">
            <g id="legs-2">
              <g id="Groupe_29" data-name="Groupe 29">
                <path id="Tracé_63" data-name="Tracé 63" d="M502.922,425.629c.546,82.255-5.592,287.649-5.592,287.649l21.5,2.2S536.941,598.675,540.324,581.2s23.764-126.421,23.764-126.421l48.869,259.533,20.058-.384s-14.486-199.89-17.067-287.393c-.3-10.066-12-51.524-12-51.524l-90.414-7.048-10.086,51.935a29.252,29.252,0,0,0-.532,5.734Z" transform="translate(-493.237 -367.96)" fill="url(#linear-gradient-3)"/>
                <g id="Groupe_27" data-name="Groupe 27" transform="translate(94.959 27.308)" opacity="0.2">
                  <path id="Tracé_64" data-name="Tracé 64" d="M659.943,439.753c-.155-5.282-3.457-19.216-6.549-31.263H647l-14.81,13.152c2.891,11.818,11.063,27.308,17.363,28.844l18.293,276.842,9.17-.175S662.53,527.264,659.95,439.76Z" transform="translate(-632.19 -408.49)"/>
                </g>
                <g id="Groupe_28" data-name="Groupe 28" transform="translate(15.278 74.749)" opacity="0.2">
                  <path id="Tracé_65" data-name="Tracé 65" d="M513.93,748.593l9.332,2.8,1.193-1.1c2.042-13.139,18.118-116.55,21.278-132.91,3.382-17.478,23.764-126.421,23.764-126.421l-.8-12.067S520.755,633.114,513.93,748.593Z" transform="translate(-513.93 -478.9)"/>
                </g>
                <path id="Tracé_66" data-name="Tracé 66" d="M685.1,892.061l-15.935.546a5.669,5.669,0,0,1-5.862-5.592h0a5.666,5.666,0,0,1,5.478-5.741l15.935-.546a5.669,5.669,0,0,1,5.862,5.592h0A5.666,5.666,0,0,1,685.1,892.061Z" transform="translate(-547.38 -535.235)" fill="#87524e"/>
                <rect id="Rectangle_10" data-name="Rectangle 10" width="11.353" height="27.261" rx="5.677" transform="translate(0 354.797) rotate(-86.29)" fill="#87524e"/>
              </g>
            </g>
            <g id="Groupe_30" data-name="Groupe 30" transform="translate(9.572 9.933)">
              <path id="Tracé_67" data-name="Tracé 67" d="M506.458,441.479a35.981,35.981,0,0,0,13.368-7.391,92.434,92.434,0,0,0,10.5-11.394c.708-.856-.728-1.812-1.428-.964a91.527,91.527,0,0,1-9.931,10.814,34.12,34.12,0,0,1-12.869,7.25c-1.051.31-.714,2,.35,1.684h0Z" transform="translate(-505.462 -395.326)" fill="#86514d"/>
              <path id="Tracé_68" data-name="Tracé 68" d="M663.712,444.644a34.6,34.6,0,0,1-18.145-19.412c-.384-1.038-1.92-.263-1.536.768a36.265,36.265,0,0,0,19.122,20.267c1.011.451,1.57-1.179.566-1.624h0Z" transform="translate(-550.646 -396.416)" fill="#86514d"/>
              <path id="Tracé_69" data-name="Tracé 69" d="M592.148,383.475q-.546,23.579-1.1,47.151c-.027,1.105,1.691,1.22,1.718.115q.546-23.579,1.1-47.151c.027-1.105-1.691-1.22-1.718-.115Z" transform="translate(-533.383 -382.702)" fill="#86514d"/>
            </g>
          </g>
        </g>
        <g id="Main">
          <g id="arm">
            <path id="Tracé_70" data-name="Tracé 70" d="M400.309,179.6c-6.36-.229-13.994-17.815-16.38-36.2-2.224-17.114-4.171-30.691-3.874-50.116.054-3.49.391-7.6,3.093-9.864,2.661-2.23,3.847.633,6.893,1.26,1.152.236,1.428,1.5,2.486,7.452,3.915,22.147,8.638,34.221,15.456,55.775" transform="translate(-367.888 -31.39)" fill="#f59265"/>
            <g id="Groupe_31" data-name="Groupe 31">
              <path id="Tracé_71" data-name="Tracé 71" d="M385.721,62.755c-.923-7.263,1.139-11.461,2.479-16.642a60.335,60.335,0,0,0,1.455-11.165l1.2-18.044c.04-.627.02-1.395-.478-1.617-.687-.317-1.375.707-1.7,1.536l-3.659,9.143c-.067.162-.27.168-.3,0-1.516-7.337-3.841-15.611-5.68-18.866-.755-1.071-1.678-.249-1.779,1.024l2.082,19.553c.02.216-.263.323-.323.121l-4.171-14.1a16.564,16.564,0,0,0-2.156-5.1.767.767,0,0,0-1.327.29,9.387,9.387,0,0,0-.108,4.737c1.415,9.487,2.284,16.076,1.961,16.3-.377.061-2.439-8.308-3.908-13.718a5.657,5.657,0,0,0-1.718-3.126c-.829-.546-1.61.061-1.637,1.2a58.212,58.212,0,0,0,2.136,17c.054.209-.216.364-.3.162,0,0-3.012-12.451-4.777-11.589-1.4.681-1,3.632-.728,5.451,1.469,9.945,4.77,23.771,9.224,32.4,2.776,5.377,2.85,8.1,2.965,9.689" transform="translate(-362.011 -6.607)" fill="url(#linear-gradient-4)"/>
              <path id="Tracé_72" data-name="Tracé 72" d="M383.938,69.418c.047-5.471,2.25-10.632,4.737-15.409.714-1.368,1.455-2.715,2.2-4.063.148-.27-.263-.512-.411-.243-2.675,4.811-5.4,9.777-6.522,15.214a22.949,22.949,0,0,0-.485,4.5.239.239,0,0,0,.478,0Z" transform="translate(-369.008 -20.627)" fill="#ed825d"/>
            </g>
          </g>
          <g id="clothes" transform="translate(192.897 271.862)">
            <path id="Tracé_73" data-name="Tracé 73" d="M664.088,439.509a90.948,90.948,0,0,1,8.645-12.687c1.011-1.226,2.1-2.594,2.062-4.184a7.468,7.468,0,0,0-.674-2.405,26.76,26.76,0,0,1-1.8-8.517c-.034-.714-.29-1.678-1-1.617a1.321,1.321,0,0,0-.465.162q-8.3,4.154-16.588,8.314c-2.1,1.051-6.583,2.729-5.889,4.966a15.441,15.441,0,0,0,2.614,4.844c2.823,4.056,9.157,9.817,13.085,11.252" transform="translate(-648.303 -410.096)" fill="#ed825d"/>
          </g>
        </g>
        <g id="Cou" transform="translate(139.855 65.596)">
          <g id="head-2">
            <path id="Tracé_74" data-name="Tracé 74" d="M601.626,152.216c.209,0-.115-.027-.182-.074l-.29-.512h0c.061-.135.115-.276.175-.418.27-.27.29-.115.067-.1a2.928,2.928,0,0,0-.411.074c-.445.074-.883.141-1.327.209-1.375.216-2.742.424-4.11.654a55.617,55.617,0,0,0-8.779,1.873c-.647.222-2.069.64-1.981,1.57.067.748,1.253.761,1.179,0,0,.027-.108.121,0,.081.013,0-.007,0,.115-.081a2.051,2.051,0,0,1,.27-.141,9.8,9.8,0,0,1,1.476-.519c1.489-.431,3.012-.734,4.528-1.024,2.924-.552,5.862-.97,8.8-1.455a2.8,2.8,0,0,0,.815-.175.6.6,0,0,0-.337-1.145.59.59,0,0,0,0,1.179h0Z" transform="translate(-574.54 -119.316)" fill="#ce4238"/>
            <g id="Groupe_32" data-name="Groupe 32">
              <path id="Tracé_75" data-name="Tracé 75" d="M599.017,139.368c-.7-6.7-1.866-24.566-2.56-31.27a2.223,2.223,0,0,0-.243-.943,1.861,1.861,0,0,0-1.4-.7c-4.38-.674-8.894.222-13.253-.606-3.564-.681-7.115-2.506-10.646-1.671a1.7,1.7,0,0,0-.97.505,2.163,2.163,0,0,0-.33,1.327c-.061,2.068-.027,4.137,0,6.2.094,6.313.458,21.958.546,28.272,0,0,7.4,7.263,15.51,6.738a16.253,16.253,0,0,0,13.348-7.85Z" transform="translate(-569.58 -103.961)" fill="#f4966b"/>
              <path id="Tracé_76" data-name="Tracé 76" d="M569.947,104.681a1.719,1.719,0,0,1,.97-.505c3.537-.835,7.081.99,10.646,1.671,4.359.829,8.867-.067,13.253.606a1.861,1.861,0,0,1,1.4.7,2.25,2.25,0,0,1,.243.943l1.038,9.952a25.3,25.3,0,0,1-12.108,4.1,18.866,18.866,0,0,1-15.726-6.994l-.04-2.944c-.027-2.069-.061-4.137,0-6.2a2.209,2.209,0,0,1,.33-1.327Z" transform="translate(-569.583 -103.961)" fill="#ed825d"/>
            </g>
          </g>
        </g>
      </g>
      <g id="poignet" transform="translate(7.67 58.886)">
        <path id="Tracé_77" data-name="Tracé 77" d="M377.11,100.107c-.182-2.035-.371-4.063-.552-6.1a3.861,3.861,0,0,1,.121-1.8c.579-1.455,2.419-1.55,3.874-1.577a18.032,18.032,0,0,0,7.9-2.008c1.624-.835,3.659-1.887,4.993-.687,1.664,1.5.2,4.676,1.172,6.771a2.17,2.17,0,0,1,.35,1.058c-.054.64-.761.964-1.341,1.139q-4.437,1.344-8.867,2.682" transform="translate(-374.411 -87.397)" fill="#212168"/>
        <path id="Tracé_78" data-name="Tracé 78" d="M672.281,408.49c-1.038,1.631-3.328,1.927-5.276,2.345s-4.211,1.691-4,3.558a4.138,4.138,0,0,0,1.24,2.129l8.995,10.026a4.6,4.6,0,0,0,1.26,1.105c1.523.8,3.47-.155,4.743-1.341s2.338-2.682,3.982-3.328" transform="translate(-467.867 -192.145)" fill="#212168"/>
      </g>
      <path id="bas_pull" data-name="bas pull" d="M501.47,402.27c2.547,4.575,2.042,11.562,6.8,13.617a10.8,10.8,0,0,0,3.827.64q20.476.889,40.959,1.786l14.763.647c11.576.505,23.178,1.011,34.747.31a8.917,8.917,0,0,0,3.47-.7A9.264,9.264,0,0,0,609.4,414.8c1.873-3.1-.984-8.294.889-11.387" transform="translate(-407.506 -131.229)" fill="#212168"/>
      <path id="Pull" d="M377.859,102.971c-2.459,1.186-5.39,3.739-4.184,7.715.775,2.567,3.14,4.885,4,7.519,1.334,4.049,4.063,36.91,5.592,41.033A114.466,114.466,0,0,1,386.51,171.1c1.455,7.122,3.827,10.592,9.3,23.562,2.062,4.892,5.862,13.085,10.012,14.81,6.3,2.614,27.5.977,32.5-.168,8.173-1.873,11.576-1.873,17.808-7.317.485,21.015.654,91,2.291,100.9.694,4.2,3.093,6.131,4.912,6.926A17.757,17.757,0,0,0,469.149,311c32.213,1.981,64.791,1.981,93.9,2.176,3.1.02,5.922-.95,7.641-3.76,2.547-4.157,2.028-8.058,2.729-13.058,2.763-19.769,1.307-44.287.411-61.644,8.234,10.471,8.752,11.744,18.293,27.066L574.1,307.1c-.782,6.125,12.276,17.444,13.981,17.235,6.879-.849,5.687-5.99,9.15-10.342,2.938-3.7,5.781-8.833,8.106-12.9,4.979-8.678,9.878-13.981,10.727-15.45,4.851-8.429,7.58-12.384,8.038-13.523,1.57-3.915,1-10.3.263-13.28-6.273-25.28-2.823-18.522-11.185-37.415-4.083-9.231-6.758-15.834-10.322-25.233-5.148-13.577-6.515-15.692-9.406-23-2.8-7.081-6.536-12.4-10.956-18.428a61.167,61.167,0,0,0-32.806-22.929,19.94,19.94,0,0,0-8.948-.782,28.821,28.821,0,0,0-7.2,2.931c-6.974,3.47-15.2,5.983-22.154,2.473-2.756-1.388-15.416-7.2-18.037-5.586-4.447,2.736-11.973,4.245-18.482,8.011-14.682,8.49-35.535,26.81-55.661,27.254-5.35-14.439-14.992-52.245-23.218-64.979a2.045,2.045,0,0,0-2.816-.674l-9.264,2.223" transform="translate(-365.725 -32.683)" fill="url(#linear-gradient-5)"/>
      <path id="ombre_manche_" data-name="ombre manche " d="M690.37,318.849c3.942-3.463,9.116-.66,10.06-.094-12.465-7.587-10.875-10.046-21.675-23.522-10.854-13.529-6.509-20.429-9.494-28.7l1.1,22.45c8.234,10.471,8.752,11.744,18.293,27.066l-18.03,45.318a6.238,6.238,0,0,0,.438,2.87c1.341,3.443,3.187,5.491,3.072,5.175-.781-2.749-.869-12.512,3.322-22.484,4.986-11.845,10.47-25.927,12.916-28.076Z" transform="translate(-462.242 -86.948)" opacity="0.25"/>
      <g id="Cordon">
        <g id="Cordon_" data-name="Cordon " transform="translate(7.67 58.886)">
          <path id="Tracé_84" data-name="Tracé 84" d="M561.985,155.125q-1.607,13.937-1.833,27.989c-.04,2.634-.047,5.276-.02,7.91a.337.337,0,0,0,.674,0c-.108-9.352.243-18.718,1.058-28.036q.344-3.942.8-7.863c.047-.431-.627-.424-.674,0h0Z" transform="translate(-434.307 -109.387)" fill="#212168"/>
          <path id="Tracé_86" data-name="Tracé 86" d="M557.434,211.118a2.069,2.069,0,0,0,1.813,1.314,1.837,1.837,0,0,0,1.853-1.092,2.483,2.483,0,0,0-.175-2.25,1.774,1.774,0,0,0-2.075-.822,2.276,2.276,0,0,0-1.543,2.284.347.347,0,0,0,.337.337.338.338,0,0,0,.337-.337,1.605,1.605,0,0,1,.869-1.556,1.156,1.156,0,0,1,.8-.115.506.506,0,0,1,.108.034c.054.02-.013-.007.04.02s.135.074.2.115c.047.034-.007-.007.034.027a.672.672,0,0,1,.074.067,1.141,1.141,0,0,1,.148.162s.013.02.04.054a.612.612,0,0,1,.054.088c.04.067.074.135.108.2.013.034,0,.007,0,0a.7.7,0,0,1,.027.067.6.6,0,0,1,.034.1c.027.074.04.148.061.222l.02.121c-.007-.047,0,.04,0,.054a2.133,2.133,0,0,1-.04.627,1.09,1.09,0,0,1-.148.364,1.079,1.079,0,0,1-.256.3h0a.141.141,0,0,1-.04.027.381.381,0,0,1-.088.054.734.734,0,0,1-.1.054.327.327,0,0,1-.047.02c-.054.02.04-.013-.013,0s-.128.04-.2.061l-.115.02c.054-.007-.04,0-.061,0h-.236a.542.542,0,0,1-.2-.027,1.3,1.3,0,0,1-.411-.155,1.245,1.245,0,0,1-.35-.276.615.615,0,0,1-.115-.155,1.1,1.1,0,0,1-.067-.121.17.17,0,0,0-.027-.047c-.027-.061.027.074-.013-.034a.35.35,0,0,0-.418-.236.341.341,0,0,0-.236.418h0Z" transform="translate(-433.388 -126.799)" fill="#212168"/>
        </g>
        <g id="Cordon-2" data-name="Cordon" transform="translate(7.67 58.886)">
          <path id="Tracé_85" data-name="Tracé 85" d="M612.85,153.655a177.848,177.848,0,0,1,2.917,29.154q.071,4.113-.047,8.227c-.014.431.66.431.674,0a179.7,179.7,0,0,0-1.563-29.3c-.377-2.762-.822-5.525-1.327-8.267-.081-.424-.728-.243-.647.182h0Z" transform="translate(-451.51 -108.874)" fill="#212168"/>
          <path id="Tracé_87" data-name="Tracé 87" d="M615.328,212.221a1.781,1.781,0,0,1,.384-1.846,1.356,1.356,0,0,1,.788-.458c.034,0,.1-.013.175-.013a.666.666,0,0,1,.2.02,1.014,1.014,0,0,1,.391.168,1.791,1.791,0,0,1,.579.694,1.942,1.942,0,0,1,.2.916,1.359,1.359,0,0,1-.977,1.28,1.463,1.463,0,0,1-1.678-.64.335.335,0,0,0-.579.337,2.1,2.1,0,0,0,2.1,1.011,2.055,2.055,0,0,0,1.765-1.6,2.55,2.55,0,0,0-.8-2.372,1.771,1.771,0,0,0-2.385-.061,2.469,2.469,0,0,0-.815,2.736.347.347,0,0,0,.418.236.341.341,0,0,0,.236-.418h0Z" transform="translate(-452.061 -127.141)" fill="#212168"/>
        </g>
      </g>
      <path id="ombre_poche_" data-name="ombre poche " d="M639.9,357.6c-13.644-11.259-17.478-16.865-20.948-26.749C618.95,330.85,619.873,348.126,639.9,357.6Z" transform="translate(-445.83 -107.93)" opacity="0.25"/>
      <path id="Ombre_cole" data-name="Ombre cole" d="M586.926,154.734c.5-.371.977-.728,1.449-1.071-1.53.559-3.086,1.058-4.622,1.543a40.546,40.546,0,0,1-5.646,1.5c-5.6.916-11.292-.566-16.669-2.493s-10.659-4.319-16.252-5.3l-.714-.2c-.552.222-1.125.445-1.711.66,4.609,10.659,37.071,10.612,44.166,5.363Z" transform="translate(-420.975 -48.512)" opacity="0.25"/>
      <g id="poche">
        <path id="Tracé_94" data-name="Tracé 94" d="M529.041,359.356a31.413,31.413,0,0,0,10.814-8,45.986,45.986,0,0,0,7.6-12.3c1.132-2.594,2.1-5.255,3.012-7.937.142-.411-.512-.586-.647-.182a72.718,72.718,0,0,1-6,13.8,36.9,36.9,0,0,1-8.638,10.134,29.115,29.115,0,0,1-6.482,3.908c-.4.175-.054.755.337.579h0Z" transform="translate(-416.332 -107.882)" fill="#212168"/>
        <path id="Tracé_95" data-name="Tracé 95" d="M618.445,330.708a31.865,31.865,0,0,0,4.541,12.667,37.553,37.553,0,0,0,9.467,10.241,37.972,37.972,0,0,0,7.108,4.13c.391.175.734-.4.337-.579A37.293,37.293,0,0,1,628.39,349.2a33.58,33.58,0,0,1-7.4-11.286,30.245,30.245,0,0,1-1.873-7.2c-.054-.424-.728-.431-.674,0h0Z" transform="translate(-445.662 -107.782)" fill="#212168"/>
      </g>
      <g id="plie">
        <path id="Tracé_98" data-name="Tracé 98" d="M705.6,343.453a13.447,13.447,0,0,0-3.423-2.318,19.348,19.348,0,0,0-3.881-1.449c-.3-.074-.424.384-.128.458a18.357,18.357,0,0,1,3.766,1.4,12.985,12.985,0,0,1,3.322,2.244c.222.216.559-.121.337-.337h0Z" transform="translate(-471.618 -110.81)" fill="#212168"/>
        <path id="Tracé_99" data-name="Tracé 99" d="M706.351,340.975a16.172,16.172,0,0,0-8.112-1.321c-.3.02-.31.5,0,.478a18.635,18.635,0,0,1,4.016.162,12.9,12.9,0,0,1,3.854,1.1c.276.135.519-.276.243-.411h0Z" transform="translate(-471.621 -110.785)" fill="#212168"/>
        <path id="Tracé_96" data-name="Tracé 96" d="M434.988,205.34a13.3,13.3,0,0,0,2.655-3.167,19.214,19.214,0,0,0,1.833-3.713c.1-.29-.357-.411-.458-.128a18.455,18.455,0,0,1-1.786,3.6A12.826,12.826,0,0,1,434.651,205c-.236.2.1.532.337.337h0Z" transform="translate(-385.682 -64.648)" fill="#212168"/>
        <path id="Tracé_97" data-name="Tracé 97" d="M438.47,206.325a13.345,13.345,0,0,0,1.543-3.834,19.145,19.145,0,0,0,.593-4.1.239.239,0,0,0-.478,0,18.446,18.446,0,0,1-.579,3.975,12.935,12.935,0,0,1-1.5,3.719c-.162.263.249.5.411.243h0Z" transform="translate(-386.805 -64.642)" fill="#212168"/>
        <path id="plie-2" data-name="plie" d="M668.927,237.027c-.216,5.862-.465,11.73-.5,17.606-.027,4.164.115,8.328.256,12.492q.2,5.791.377,11.582a.239.239,0,0,0,.478,0c-.175-5.862-.418-11.724-.566-17.592-.108-4.164-.074-8.328.04-12.5.108-3.867.249-7.728.391-11.589.013-.31-.465-.31-.478,0Z" transform="translate(-461.183 -77.248)" fill="#212168"/>
        <path id="Tracé_83" data-name="Tracé 83" d="M495.435,185.6a13.261,13.261,0,0,0-.283-4.124,19.088,19.088,0,0,0-1.253-3.948c-.128-.283-.539-.04-.411.243a15.8,15.8,0,0,1,1.476,7.829c-.034.3.445.3.478,0h0Z" transform="translate(-404.894 -57.873)" fill="#212168"/>
        <path id="Tracé_82" data-name="Tracé 82" d="M671.721,194.517a33.772,33.772,0,0,1,7.176-13.8c.2-.229-.135-.573-.337-.337a34.232,34.232,0,0,0-7.3,14.015c-.074.3.384.424.458.128h0Z" transform="translate(-462.891 -58.819)" fill="#212168"/>
      </g>
      <path id="Ombre_manche_2" data-name="Ombre manche " d="M409.377,209.585c-15.3-5.788-26.365-75.234-26.533-77.276s7.149-1.368,2.554-3.43a21.9,21.9,0,0,1-6.718-4.359v.013a10.133,10.133,0,0,1,.721,1.617c1.334,4.049,4.063,36.91,5.592,41.033a114.468,114.468,0,0,1,3.241,11.865c1.455,7.122,3.827,10.592,9.3,23.562,2.062,4.892,5.862,13.085,10.012,14.81,6.3,2.614,27.5.977,32.5-.168,8.173-1.873,11.576-1.873,17.808-7.317-2.446,2.21-33.163,5.444-48.472-.344Z" transform="translate(-367.449 -40.621)" opacity="0.25"/>
      <path id="cole" d="M599.707,143.859a3.7,3.7,0,0,0-3.8-2.486,6.271,6.271,0,0,0-1.273.2,18.922,18.922,0,0,0-3.261,1.348,39.971,39.971,0,0,1-26.52,2.655,116.046,116.046,0,0,1-11.09-3.753c-2.129-.768-4.575-1.455-6.522-.236a4.711,4.711,0,0,0-2.035,4.245,2.847,2.847,0,0,0,.027.337l.741.209c5.592.977,10.875,3.369,16.251,5.3s11.07,3.409,16.669,2.493a40.3,40.3,0,0,0,5.646-1.5c1.536-.485,3.093-.984,4.622-1.543a27.518,27.518,0,0,0,10.086-5.848,1.591,1.591,0,0,0,.485-.7c.007-.034,0-.061.007-.094a1.488,1.488,0,0,0-.04-.62Z" transform="translate(-421.769 -45.972)" fill="#212168"/>
      <path id="Ombre_pull" data-name="Ombre pull" d="M498.938,319.634c1.887,2.547,5.99,5.828,8.685,7.843-3.942-4.258-7.647-14.385-10.733-22.147.31,27.025.761,58.127,1.813,64.474.694,4.2,3.093,6.131,4.912,6.926a17.755,17.755,0,0,0,5.821,1.186c15.241.937,30.556,1.428,45.554,1.7l.121-.31c-57.7,3.51-59.111-63.638-56.173-59.677Z" transform="translate(-406.011 -99.605)" fill="#070707" opacity="0.25"/>
      <path id="ombre_poche_2" data-name="ombre poche " d="M529.04,359.223c2.776-.681,10.477-6.953,13.839-11.939a66.588,66.588,0,0,0,7.439-16.1s-17.5,24.384-21.278,28.043Z" transform="translate(-416.499 -108.038)" opacity="0.25"/>
      <g id="Ombre_bord" data-name="Ombre bord" transform="translate(100.958 592.406)" opacity="0.2">
        <path id="Tracé_105" data-name="Tracé 105" d="M692.431,880.728l-5.451.189a8.129,8.129,0,0,1,2.527,5.754,7.929,7.929,0,0,1-2.372,5.586l5.68-.2a5.675,5.675,0,0,0,5.478-5.741h0a5.669,5.669,0,0,0-5.862-5.592Z" transform="translate(-568.981 -879.718)"/>
        <path id="Tracé_106" data-name="Tracé 106" d="M520.259,879.641l-6.347-.411a7.811,7.811,0,0,1,1.523,4.568,8.463,8.463,0,0,1-3.585,6.677l7.674.5a5.675,5.675,0,1,0,.734-11.326Z" transform="translate(-511.85 -879.23)"/>
      </g>
      <g id="Semelle" transform="translate(51.855 621.015)">
        <path id="Tracé_107" data-name="Tracé 107" d="M498.108,924.429c-3.315-.067-26.358.256-29.262.141-9.487-.364-17.262-.647-26.749-1l-1.442-.64a3.455,3.455,0,0,1-1.132-1.226c-.957,2.021-.721,4.73,1.132,5.943l1.442.64c9.487.364,17.262.647,26.749,1,2.9.108,25.947-.216,29.262-.142a4.549,4.549,0,0,0,3.126-.707c.97-.842,1.031-2.311.97-3.6-.04-.829-.1-1.651-.175-2.473a2.7,2.7,0,0,1-.8,1.354A4.5,4.5,0,0,1,498.108,924.429Z" transform="translate(-438.972 -921.693)" fill="#262626"/>
        <path id="Tracé_108" data-name="Tracé 108" d="M675.66,922.357a2.7,2.7,0,0,1-.8,1.354,4.5,4.5,0,0,1-3.126.708c-3.315-.067-26.358.256-29.262.141-9.487-.364-17.262-.647-26.749-1l-1.442-.64a3.455,3.455,0,0,1-1.132-1.226c-.957,2.021-.721,4.73,1.132,5.943l1.442.64c9.487.364,17.262.647,26.749,1,2.9.108,25.947-.216,29.262-.141a4.567,4.567,0,0,0,3.126-.707c.97-.842,1.031-2.311.97-3.6C675.794,924,675.734,923.179,675.66,922.357Z" transform="translate(-495.614 -921.69)" fill="#262626"/>
      </g>
      <g id="Ombre_chaussure" data-name="Ombre chaussure" transform="translate(81.911 606.037)" opacity="0.25">
        <path id="Ombre_chaussure-2" data-name="Ombre chaussure" d="M514.028,902.781c-.357-1.1-.889-2.331-1.994-2.675a3.993,3.993,0,0,0-3.005.782c-.822.458-1.469.815-2.035,1.085.115.27.209.546.3.809a56.916,56.916,0,0,1,2.736,14.978c.061,1.287,0,2.749-.97,3.6a4.5,4.5,0,0,1-3.126.708c-2.331-.047-14.372.094-22.349.148,3.5.094,25.826-.216,29.087-.148a4.55,4.55,0,0,0,3.126-.708c.97-.842,1.031-2.311.97-3.6a56.376,56.376,0,0,0-2.736-14.978Z" transform="translate(-483.58 -899.641)"/>
        <path id="Ombre_chaussure-3" data-name="Ombre chaussure" d="M690.384,917.759a56.376,56.376,0,0,0-2.736-14.978c-.357-1.1-.889-2.331-1.994-2.675a3.993,3.993,0,0,0-3.005.782c-.822.458-1.469.815-2.035,1.085.115.27.209.546.3.809a56.914,56.914,0,0,1,2.736,14.978c.061,1.287,0,2.749-.97,3.6a4.5,4.5,0,0,1-3.126.708c-2.331-.047-14.372.094-22.349.148,3.5.094,25.826-.216,29.087-.148a4.567,4.567,0,0,0,3.126-.708c.97-.842,1.031-2.311.97-3.6Z" transform="translate(-540.218 -899.641)"/>
      </g>
      <g id="Tete">
        <path id="peau_visage_" data-name="peau visage " d="M606.149,56.052a6.11,6.11,0,0,0-3.82-5.855c-.243-6.253-1.193-13.287-4.258-15.571l-8.355-9.561c-3.827-2.857-9.467-5.619-14.2-4.919h-5.565c-6.293.93-17.195,7.007-19.58,12.9l-2.412,7.236c-.8,1.981,1.078,7.236,1.017,9.372l.02.377a6.012,6.012,0,0,0-4.38,6.017,5.913,5.913,0,0,0,4.946,6.111l.054,1.172A24.963,24.963,0,0,0,554.5,77.5l6.677,8.058a17.947,17.947,0,0,0,26.7,1.051l9.157-9.433c3.113-3.207,5.215-9.332,5.357-13.8l-.027-1.5a6.116,6.116,0,0,0,3.773-5.835Z" transform="translate(-421.582 -6.536)" fill="#f6956e"/>
        <path id="nez" d="M591.638,78.28l.748,9.473a1.7,1.7,0,0,1-1.7,1.833H588.97" transform="translate(-436.05 -25.537)" fill="none" stroke="#d37250" stroke-miterlimit="10" stroke-width="1"/>
        <ellipse id="Oeil" cx="1.907" cy="3.43" rx="1.907" ry="3.43" transform="translate(141.675 49.314)"/>
        <ellipse id="Oeil-2" data-name="Oeil" cx="1.907" cy="3.43" rx="1.907" ry="3.43" transform="translate(162.697 49.314)"/>
        <path id="sourcil" d="M567.722,64.815a1.235,1.235,0,0,1-.977-.472,1.253,1.253,0,0,1,.189-1.765,11.317,11.317,0,0,1,8.085-2.944,1.258,1.258,0,1,1-.115,2.513c-2.338-.108-4.13.566-6.394,2.392a1.237,1.237,0,0,1-.788.276Z" transform="translate(-428.708 -19.45)" fill="#512c1f"/>
        <path id="sourcil-2" data-name="sourcil" d="M609.456,64.815a1.234,1.234,0,0,0,.977-.472,1.253,1.253,0,0,0-.189-1.765,11.317,11.317,0,0,0-8.085-2.944,1.258,1.258,0,1,0,.115,2.513c2.338-.108,4.13.566,6.394,2.392a1.237,1.237,0,0,0,.788.276Z" transform="translate(-439.961 -19.45)" fill="#512c1f"/>
        <path id="Cheveux" d="M615.063,17.512c-4.743,2.237-6.32-.546-6.32-.546.04-.061.074-.121.115-.182A15.2,15.2,0,0,0,610.01,2.257h-.02l-.007.007c-1.772,4.508-11.36,7.492-12.162,7.728a.524.524,0,0,1-.061.02c2.729-2.48,1.476-8.5,1.172-9.77C598.9.088,598.872,0,598.872,0c-1.388,4.73-29.754,8.618-43.8,10.147S541.729,26.83,542.982,29.471c0,0,1.388,9.662,3.234,15.254h0a.113.113,0,0,0,.013.034c.04.121.081.243.121.357a10.789,10.789,0,0,1,.93,4.1c.067,1.011.04,1.759.04,1.759,0,32.517,29.559,45.352,45.527,28.474,5.357-5.66,9.184-14.661,9.851-27.389V48.229l2.351-13.5h0c.418-.115.856-.236,1.314-.391,8.759-2.917,9.729-17.377,9.729-17.377-.364.209-.714.391-1.044.546Zm-25.88,57.157-.8-2.547a6.61,6.61,0,0,0-6.347-5.768l-14.008-.438a6.6,6.6,0,0,0-6.677,5.269l-1.213,2.21c-6.125-6.091-9.332-15.268-9.332-28.386h0c1.691-5.727,1.213-14.709,1.213-14.709s16.959,7.506,30.448,3.335c10.12-3.133,11.7-2.264,12.512-1.7-.579,7.823-.977,12.916,3.463,16.386.364.283.667.546.95.8-1.132,12.168-5.04,20.557-10.208,25.543Z" transform="translate(-420.847)" fill="#311c14"/>
        <path id="Bouche" d="M575.17,104.937c3.753,1.092,21.251.606,21.251.606l-4.258,2.7a11.58,11.58,0,0,1-13.671-.734l-3.315-2.581Z" transform="translate(-431.548 -34.23)" fill="#fff3f2"/>
        <g id="Ombre_cheveux_" data-name="Ombre cheveux ">
          <path id="Tracé_122" data-name="Tracé 122" d="M549.647,73.05c.067,1.011.04,1.759.04,1.759,0,32.517,29.559,45.352,45.527,28.474-.411.236-.822.472-1.253.728C561.337,123.038,553,88.183,549.64,73.05Z" transform="translate(-423.22 -23.83)" opacity="0.25"/>
          <path id="Tracé_123" data-name="Tracé 123" d="M615.92,12.037a12.026,12.026,0,0,0,5.889-1.927.524.524,0,0,1-.061.02c2.729-2.48,1.476-8.5,1.172-9.77.822,7.284-7,11.677-7,11.677Z" transform="translate(-444.841 -0.117)" opacity="0.25"/>
          <path id="Tracé_124" data-name="Tracé 124" d="M631.14,20.225a17.46,17.46,0,0,0,6.67-2.358A15.2,15.2,0,0,0,638.963,3.34h-.02l-.007.007c1.833,7.971-7.789,16.871-7.789,16.871Z" transform="translate(-449.807 -1.09)" opacity="0.25"/>
          <path id="Tracé_125" data-name="Tracé 125" d="M643.716,25.17c-.364.209-.714.391-1.044.546C641.749,39.771,627,37.722,627,37.722a59.317,59.317,0,0,0,5.673,5.215c.418-.115.856-.236,1.314-.391C642.746,39.629,643.716,25.17,643.716,25.17Z" transform="translate(-448.456 -8.211)" opacity="0.25"/>
        </g>
      </g>
    </g>
  </g>
</svg>
