<svg xmlns="http://www.w3.org/2000/svg" xmlns:xlink="http://www.w3.org/1999/xlink" width="790.14" height="542.66" viewBox="0 0 790.14 542.66"><defs><linearGradient id="a" x1="0.5" y1="1" x2="0.5" gradientUnits="objectBoundingBox"><stop offset="0.15" stop-color="#0e101e"/><stop offset="0.98" stop-color="#171b30"/></linearGradient><linearGradient id="b" y1="0.5" x2="1" y2="0.5" gradientUnits="objectBoundingBox"><stop offset="0" stop-color="#898fcc"/><stop offset="1" stop-color="#505896"/></linearGradient><linearGradient id="c" y1="0.5" x2="1" y2="0.5" gradientUnits="objectBoundingBox"><stop offset="0" stop-color="#535b99"/><stop offset="1" stop-color="#898fcc"/></linearGradient></defs><path d="M581,42.43,565.43,3.75H205.53L189.96,42.43H3.5V407.39l100,131.77H667.46l100-131.8V42.43Z" fill="url(#a)"/><path d="M669.2,542.66H101.76L0,408.57V38.93H187.6L203.17.25H567.79l15.57,38.68h187.6V408.54l-.71.94L669.2,542.66Zm-563.96-7H665.72l98.24-129.48V45.93H578.64L563.07,7.25H207.9L192.33,45.93H7V406.21l98.24,129.45Z" fill="url(#b)"/><line y1="34.74" x2="12.64" transform="translate(148.76)" fill="url(#c)"/><path d="M153.26,34.74h-9L156.9,0h9Z" fill="url(#c)"/><line y1="34.74" x2="12.65" transform="translate(124.5)" fill="url(#c)"/><path d="M129,34.74h-9L132.65,0h9Z" fill="url(#c)"/><line y1="34.74" x2="12.64" transform="translate(100.25)" fill="url(#c)"/><path d="M104.75,34.74h-9L108.39,0h9Z" fill="url(#c)"/><line y1="34.74" x2="12.64" transform="translate(76)" fill="url(#c)"/><path d="M80.5,34.74h-9L84.14,0h9Z" fill="url(#c)"/><line y1="34.74" x2="12.65" transform="translate(51.74)" fill="url(#c)"/><path d="M56.24,34.74h-9L59.89,0h9Z" fill="url(#c)"/><line x2="12.64" y2="34.74" transform="translate(707.31)" fill="url(#b)"/><path d="M711.81,0h-9l12.64,34.74h9Z" fill="url(#b)"/><line x2="12.64" y2="34.74" transform="translate(683.05)" fill="url(#b)"/><path d="M687.55,0h-9l12.64,34.74h9Z" fill="url(#b)"/><line x2="12.64" y2="34.74" transform="translate(658.8)" fill="url(#b)"/><path d="M663.3,0h-9l12.64,34.74h9Z" fill="url(#b)"/><line x2="12.65" y2="34.74" transform="translate(634.54)" fill="url(#b)"/><path d="M639.04,0h-9l12.65,34.74h9Z" fill="url(#b)"/><line x2="12.64" y2="34.74" transform="translate(610.29)" fill="url(#b)"/><path d="M614.79,0h-9l12.64,34.74h9Z" fill="url(#b)"/><path d="M728.45,496.35l-7.97-6.04,59.66-78.63V171.54h10v243.5Z" fill="#505896"/></svg>