<svg xmlns="http://www.w3.org/2000/svg" xmlns:xlink="http://www.w3.org/1999/xlink" width="1382.91" height="1039.23" viewBox="0 0 1382.91 1039.23">
  <defs>
    <linearGradient id="linear-gradient" x1="0.5" y1="0.522" x2="0.5" y2="1.522" gradientUnits="objectBoundingBox">
      <stop offset="0.15" stop-color="#0e101e"/>
      <stop offset="0.98" stop-color="#171b30"/>
    </linearGradient>
    <linearGradient id="linear-gradient-2" y1="1.021" x2="1" y2="1.021" gradientUnits="objectBoundingBox">
      <stop offset="0" stop-color="#898fcc"/>
      <stop offset="1" stop-color="#505896"/>
    </linearGradient>
  </defs>
  <g id="Ecran" transform="translate(299.965)">
    <path id="Tracé_179" data-name="Tracé 179" d="M1073.47,1032.262V62.375H607.01L571.44,3.5H211.54L175.97,62.375H-290.49v969.917" fill="url(#linear-gradient)"/>
    <path id="Tracé_180" data-name="Tracé 180" d="M1076.97,1038.29l-1370.96.03V58.68h467.6L209.18,0H573.8l35.57,58.68h467.6v979.61l-.71.94m-6.29-10.3V65.68H604.65L569.08,7H213.91L178.34,65.68H-286.99v963.28l1356.96-.03Z" fill="url(#linear-gradient-2)"/>
    <rect id="Rectangle_64" data-name="Rectangle 64" width="18.95" height="163.33" transform="translate(-299.965 134.13)" fill="#9ea7e8"/>
    <rect id="Rectangle_65" data-name="Rectangle 65" width="18.95" height="163.33" transform="translate(1063.995 620.43)" fill="#9ea7e8"/>
    <rect id="Rectangle_66" data-name="Rectangle 66" width="18.95" height="163.33" transform="translate(1063.995 828.43)" fill="#9ea7e8"/>
  </g>
</svg>
